 <svg  version="1.0" xmlns="http://www.w3.org/2000/svg"  width="64.000000px" height="64.000000px" viewBox="0 0 300.000000 300.000000"  preserveAspectRatio="xMidYMid meet">  <g transform="translate(0.000000,300.000000) scale(0.050000,-0.050000)" fill="#ffffff" stroke="none"> <path d="M2382 4985 c-14 -140 -29 -273 -34 -295 -8 -35 21 -52 216 -128 124 -48 383 -150 575 -226 405 -160 360 -160 529 -1 l133 125 -40 355 c-23 195 -41 371 -41 390 0 33 -45 35 -657 35 l-656 0 -25 -255z"/> <path d="M1175 4766 c-52 -4 -95 -12 -95 -17 0 -11 486 -654 906 -1199 153 -198 285 -373 294 -390 15 -25 26 -22 74 22 87 80 700 616 848 741 l133 112 -543 205 c-1485 560 -1431 542 -1617 526z"/> <path d="M4130 4438 c-198 -175 -358 -324 -356 -331 3 -10 485 -207 588 -240 24 -7 92 68 249 276 119 158 274 361 344 452 l128 165 -296 -1 -297 -2 -360 -319z"/> <path d="M2997 3453 c-312 -268 -605 -522 -651 -565 l-84 -78 -55 -685 -56 -686 460 -460 459 -459 466 466 466 467 -41 498 c-23 275 -55 659 -72 855 l-30 356 191 252 c105 139 184 259 176 267 -15 13 -635 259 -654 259 -5 0 -264 -219 -575 -487z"/> </g> </svg> 